<?xml version="1.0" standalone="no"?>
<!DOCTYPE svg PUBLIC "-//W3C//DTD SVG 20010904//EN"
 "http://www.w3.org/TR/2001/REC-SVG-20010904/DTD/svg10.dtd">
<svg version="1.0" xmlns="http://www.w3.org/2000/svg"
 width="284.000000pt" height="284.000000pt" viewBox="0 0 284.000000 284.000000"
 preserveAspectRatio="xMidYMid meet">
<metadata>
Created by potrace 1.11, written by Peter Selinger 2001-2013
</metadata>
<g transform="translate(0.000000,284.000000) scale(0.100000,-0.100000)"
fill="#000000" stroke="none">
<path d="M111 2607 c-12 -15 -43 -122 -55 -187 -3 -19 -8 -46 -11 -58 -9 -47
-27 -229 -31 -307 -2 -44 -6 -111 -8 -148 -4 -55 -2 -69 10 -74 13 -5 13 -8
-2 -24 -15 -17 -16 -37 -11 -171 7 -158 9 -175 33 -293 8 -38 14 -74 14 -78 0
-18 134 -55 144 -39 2 4 -2 43 -9 87 -27 167 -35 410 -21 610 14 200 26 297
68 512 17 90 30 165 27 167 -2 2 -34 7 -70 10 -51 5 -68 4 -78 -7z"/>
<path d="M280 2553 c-6 -26 -14 -59 -16 -73 -3 -14 -11 -59 -19 -100 -19 -98
-30 -171 -40 -260 -27 -239 -27 -602 -1 -764 10 -60 20 -114 22 -120 3 -6 36
-12 80 -14 102 -3 141 -21 161 -72 l16 -41 111 2 c61 1 113 5 116 9 3 5 3 44
0 87 -9 125 0 499 15 639 7 65 36 237 41 246 2 3 0 8 -6 10 -5 1 -7 13 -4 25
4 13 10 21 13 18 7 -4 56 213 65 285 2 20 -2 50 -10 68 -21 51 -48 58 -274 77
-30 3 -68 7 -85 10 -16 2 -62 7 -101 11 l-71 5 -13 -48z m474 -105 c15 -25 -3
-52 -37 -56 -34 -4 -58 38 -37 63 17 20 59 16 74 -7z m-487 -1180 c-3 -8 -6
-5 -6 6 -1 11 2 17 5 13 3 -3 4 -12 1 -19z"/>
<path d="M993 2522 c-32 -2 -43 -7 -44 -20 -3 -86 3 -658 7 -664 7 -11 115
-10 132 1 11 7 13 38 9 145 -4 148 1 170 44 164 l24 -3 2 -144 c1 -81 7 -149
13 -155 11 -11 97 -13 123 -3 11 4 14 14 10 34 -2 15 -4 37 -4 48 4 150 13
554 12 578 -1 15 -11 17 -76 17 -71 0 -75 -1 -75 -22 -1 -13 -2 -68 -3 -122
l-2 -100 -30 0 -30 -1 -3 123 c-1 67 -6 122 -10 123 -23 3 -62 4 -99 1z m211
-507 c-4 -8 -10 -12 -15 -9 -11 6 -2 24 11 24 5 0 7 -7 4 -15z"/>
<path d="M2139 2523 c-5 -41 -5 -683 0 -685 21 -5 123 -3 126 2 2 3 5 51 6
105 1 55 6 112 11 127 11 31 38 38 39 11 0 -10 2 -27 4 -38 2 -12 6 -59 8
-106 2 -47 7 -90 10 -96 5 -7 94 -11 129 -4 13 2 0 213 -18 288 -17 71 -16 74
5 147 25 83 29 132 14 147 -6 6 -36 9 -69 7 l-58 -3 -12 -57 c-14 -71 -32
-115 -49 -122 -11 -4 -14 20 -12 132 l2 136 -25 7 c-35 10 -110 11 -111 2z"/>
<path d="M1455 2421 c-32 -14 -62 -53 -73 -93 -18 -67 -13 -73 59 -73 l64 0
-2 32 c-2 24 2 33 18 38 29 9 51 -13 47 -48 -3 -25 -11 -32 -63 -53 -107 -44
-137 -90 -138 -218 -1 -94 15 -140 56 -159 36 -17 91 -16 124 1 17 9 22 9 27
-4 5 -12 19 -15 68 -12 l63 3 2 234 c2 211 0 239 -16 277 -12 27 -31 49 -52
59 -36 19 -154 29 -184 16z m110 -458 c-6 -26 -42 -32 -51 -8 -19 49 0 148 34
173 16 12 17 7 20 -65 2 -43 0 -88 -3 -100z"/>
<path d="M1850 2423 c-36 -13 -79 -67 -86 -107 -3 -22 -8 -50 -10 -60 -9 -51
-5 -289 6 -323 24 -72 71 -104 159 -106 74 -1 130 26 154 74 19 39 30 166 14
176 -13 8 -99 13 -120 7 -14 -5 -17 -15 -15 -60 2 -40 -2 -58 -15 -71 -16 -16
-18 -16 -34 -1 -14 15 -17 43 -18 186 -2 130 1 173 12 188 11 14 17 16 31 8
12 -8 18 -27 20 -70 2 -32 8 -64 14 -71 11 -13 76 -17 116 -7 18 5 22 13 22
44 0 71 -22 140 -52 165 -35 30 -94 42 -120 26 -13 -8 -24 -8 -38 -1 -10 5
-20 10 -22 9 -2 0 -10 -3 -18 -6z"/>
<path d="M1091 1716 c-53 -19 -81 -61 -81 -122 0 -28 7 -71 16 -97 l16 -47
-36 -43 c-46 -56 -67 -117 -67 -192 0 -123 38 -175 135 -183 44 -3 62 0 90 17
30 19 36 20 43 6 13 -22 50 -27 68 -9 8 9 15 11 15 5 0 -6 16 -11 35 -11 44 0
44 8 -2 110 l-37 82 27 48 c15 26 24 50 22 54 -3 3 -2 4 1 1 8 -5 34 20 34 34
0 13 -17 14 -24 2 -9 -14 -44 -1 -49 19 -4 15 -1 17 23 10 27 -8 27 -8 13 21
-20 40 -36 36 -72 -17 -23 -35 -32 -43 -36 -30 -3 9 -7 23 -10 32 -3 9 8 29
27 47 63 64 85 166 45 218 -35 46 -132 68 -196 45z m-11 -70 c0 -3 -4 -8 -10
-11 -5 -3 -10 -1 -10 4 0 6 5 11 10 11 6 0 10 -2 10 -4z m118 -52 c3 -18 -25
-61 -33 -52 -7 7 -13 67 -7 73 12 12 37 -1 40 -21z m-54 -380 c9 -28 -23 -68
-43 -55 -18 11 -23 107 -8 136 9 18 12 16 27 -20 9 -22 20 -50 24 -61z"/>
<path d="M503 1062 c-22 -3 -22 -4 -7 -40 21 -50 24 -150 7 -220 -7 -31 -15
-88 -17 -127 -4 -68 -2 -90 28 -227 17 -83 13 -102 -30 -128 -44 -28 -53 -58
-24 -82 18 -15 40 -18 120 -18 142 0 141 -3 124 270 -10 167 -10 343 0 475 l7
101 -93 -1 c-51 0 -103 -1 -115 -3z m147 -208 c0 -25 -32 -46 -57 -37 -29 11
-26 69 5 76 28 6 52 -12 52 -39z m-10 -204 c8 -14 7 -25 -2 -40 -17 -27 -58
-23 -69 7 -16 44 49 74 71 33z m10 -219 c20 -38 -13 -71 -51 -51 -18 10 -26
50 -12 63 13 14 53 6 63 -12z"/>
<path d="M1085 908 c-4 -13 -7 -26 -7 -29 1 -3 -10 -11 -23 -17 -22 -10 -23
-9 -19 24 5 41 -7 43 -42 9 -46 -46 -56 -90 -40 -174 11 -54 29 -81 114 -166
90 -91 109 -133 77 -181 -34 -53 -61 -16 -64 89 l-1 47 -59 0 c-35 0 -63 -5
-69 -13 -6 -7 -10 -51 -10 -99 0 -80 2 -89 29 -120 26 -31 29 -32 34 -13 8 28
51 31 65 5 6 -11 8 -25 5 -30 -10 -16 44 -23 83 -12 21 6 49 14 64 17 71 14
109 193 63 290 -13 26 -38 58 -56 73 -18 15 -47 42 -65 60 -19 17 -37 32 -42
32 -12 0 -42 56 -42 79 0 14 8 23 25 27 34 8 55 -11 55 -51 0 -38 9 -43 67
-40 73 4 76 7 70 76 -8 93 -57 134 -163 138 -35 1 -43 -2 -49 -21z m192 -107
c-3 -15 -1 -33 6 -40 8 -8 8 -11 -1 -11 -7 0 -12 5 -12 11 0 6 -9 9 -20 6 -13
-3 -20 0 -20 10 0 18 25 45 34 36 3 -4 6 -1 6 5 0 7 3 12 6 12 4 0 4 -13 1
-29z m-162 -130 c5 -16 4 -21 -4 -17 -6 4 -11 1 -12 -6 0 -7 -5 -2 -10 11 -11
27 -3 60 10 45 5 -5 12 -20 16 -33z"/>
<path d="M1532 921 c-12 -7 -14 -70 -2 -72 28 -5 103 -2 107 4 2 4 8 5 13 2
13 -8 25 44 13 56 -12 12 -115 20 -131 10z"/>
<path d="M1759 920 l-26 -5 1 -335 1 -334 30 -6 c17 -3 36 -5 43 -4 6 1 23 2
37 3 l26 1 -2 234 c0 129 2 240 6 245 11 19 43 12 52 -11 4 -13 8 -120 8 -240
0 -119 3 -220 7 -224 12 -12 120 -7 128 6 4 7 7 123 6 259 -1 220 -3 250 -19
274 -30 46 -104 61 -158 33 l-25 -13 -3 46 c-3 71 -6 77 -49 76 -21 0 -49 -2
-63 -5z"/>
<path d="M1359 913 c0 -5 -3 -20 -5 -34 -5 -31 4 -34 86 -34 l55 0 3 38 3 37
-70 0 c-39 0 -71 -3 -72 -7z"/>
<path d="M2633 840 c-18 -4 -44 -15 -58 -24 -14 -9 -25 -13 -25 -9 0 5 -5 1
-10 -7 -5 -8 -7 -24 -4 -35 4 -15 3 -16 -4 -6 -8 11 -12 9 -23 -10 -10 -17
-14 -78 -15 -215 -2 -164 1 -197 16 -231 45 -101 246 -104 304 -5 21 37 32
148 18 171 -9 13 -118 19 -130 7 -2 -3 -6 -31 -8 -62 -3 -69 -26 -101 -50 -70
-15 21 -21 165 -6 167 4 1 45 3 93 4 47 1 89 4 95 7 11 8 11 190 -1 228 -12
39 -55 79 -94 86 -60 11 -65 11 -98 4z m9 -50 c21 0 14 -25 -9 -34 -13 -5 -13
-4 -4 8 9 11 8 14 -6 12 -10 0 -21 -5 -25 -11 -4 -5 -8 -1 -8 11 0 26 11 37
24 24 5 -5 18 -10 28 -10z m-66 -43 c1 -17 -1 -24 -3 -14 -2 9 -9 14 -15 11
-6 -4 -5 2 1 15 15 27 16 27 17 -12z m106 -21 c8 -7 15 -35 17 -60 l2 -47 -33
3 c-31 3 -33 5 -34 43 -2 65 19 91 48 61z m-155 -18 c-3 -8 -6 -5 -6 6 -1 11
2 17 5 13 3 -3 4 -12 1 -19z"/>
<path d="M1423 815 c-74 -34 -91 -100 -83 -337 4 -139 7 -160 26 -185 41 -54
85 -69 191 -64 36 1 87 39 108 81 12 23 22 196 16 266 -1 16 -34 12 -48 -6
-10 -13 -12 -11 -8 8 2 12 0 22 -6 22 -5 0 -9 12 -9 27 0 31 -12 24 -16 -10
-1 -12 -3 -25 -3 -28 -1 -3 -7 -6 -13 -6 -23 0 -14 71 11 98 l24 24 -6 -23
c-3 -12 -1 -20 4 -17 16 10 49 -15 49 -38 0 -17 2 -19 9 -8 14 22 6 102 -13
139 -9 17 -31 39 -48 48 -44 23 -144 28 -185 9z m115 -119 c14 -32 5 -348 -11
-358 -22 -14 -35 -8 -44 20 -13 38 -8 323 6 350 13 25 34 20 49 -12z m72 -136
c0 -5 -7 -10 -16 -10 -8 0 -12 5 -9 10 3 6 10 10 16 10 5 0 9 -4 9 -10z"/>
<path d="M2208 824 c-2 -1 -21 -4 -43 -6 l-40 -4 -3 -282 c-2 -223 0 -283 10
-287 27 -9 85 -12 106 -4 22 8 22 11 22 233 0 198 2 227 17 241 16 16 18 16
34 -3 14 -18 16 -48 14 -242 -1 -135 2 -223 8 -227 14 -8 110 -4 119 5 6 6 12
357 9 484 -1 14 -13 40 -27 57 -32 39 -81 49 -135 28 -21 -8 -39 -12 -39 -7 0
7 -46 20 -52 14z"/>
</g>
</svg>
