<?xml version="1.0" standalone="no"?>
<!DOCTYPE svg PUBLIC "-//W3C//DTD SVG 20010904//EN"
 "http://www.w3.org/TR/2001/REC-SVG-20010904/DTD/svg10.dtd">
<svg version="1.0" xmlns="http://www.w3.org/2000/svg"
 width="496.000000pt" height="496.000000pt" viewBox="0 0 496.000000 496.000000"
 preserveAspectRatio="xMidYMid meet">
<metadata>
Created by potrace 1.11, written by Peter Selinger 2001-2013
</metadata>
<g transform="translate(0.000000,496.000000) scale(0.100000,-0.100000)"
fill="#000000" stroke="none">
<path d="M3272 3453 c-13 -2 -26 -11 -29 -19 -3 -8 31 -71 78 -142 232 -356
406 -683 516 -967 19 -49 38 -97 42 -105 7 -13 46 -137 81 -255 16 -53 49
-238 55 -305 3 -35 7 -65 8 -65 1 -1 40 -9 87 -19 47 -10 118 -31 159 -47 83
-33 85 -32 96 39 4 24 8 53 10 64 18 90 29 264 40 593 3 93 8 183 10 200 2 16
7 52 10 78 21 176 71 323 147 435 17 26 65 79 105 118 l75 72 -54 26 c-29 15
-75 42 -102 61 -73 52 -84 49 -149 -47 -87 -130 -158 -280 -182 -384 -32 -141
-38 -174 -51 -299 -3 -27 -7 -66 -9 -85 -2 -19 -7 -87 -11 -150 -4 -63 -8
-131 -9 -150 -1 -19 -3 -69 -4 -109 0 -44 -5 -71 -10 -65 -5 5 -22 47 -39 94
-82 235 -245 691 -262 735 -11 28 -65 180 -121 338 -60 170 -109 292 -119 297
-65 35 -308 77 -368 63z"/>
<path d="M2960 3435 c-20 -7 -62 -29 -94 -50 -126 -80 -237 -119 -375 -131
-42 -4 -245 -8 -451 -8 l-375 -1 -1 -85 c0 -47 1 -90 3 -95 2 -7 103 -10 289
-10 246 0 287 -2 293 -15 4 -8 7 -354 7 -767 -1 -497 2 -753 9 -754 40 -6 202
-4 210 2 7 5 10 270 9 764 -1 535 2 758 10 763 12 7 11 7 81 16 120 14 219 54
329 133 59 42 106 63 141 63 24 0 26 3 20 31 -4 17 -7 55 -6 85 0 29 -3 55 -8
58 -19 12 -59 12 -91 1z"/>
<path d="M201 3230 c-8 -18 -7 -1693 2 -1706 3 -5 50 -9 104 -9 l98 0 2 398
c0 219 3 404 6 411 8 20 886 20 894 0 3 -8 6 -193 7 -411 l1 -397 98 -1 c54
-1 101 4 104 9 9 14 10 1688 1 1706 -5 13 -24 16 -100 14 -51 -1 -96 -2 -100
-3 -4 0 -7 -156 -7 -346 0 -190 -3 -350 -6 -355 -4 -6 -168 -10 -451 -10 -416
0 -444 1 -444 18 -1 9 -1 167 -1 349 0 246 -3 335 -12 340 -7 4 -52 8 -100 8
-70 1 -90 -3 -96 -15z"/>
</g>
</svg>
